<?xml version="1.0"?>
<svg width="520" height="108" xmlns="http://www.w3.org/2000/svg" xmlns:svg="http://www.w3.org/2000/svg" preserveAspectRatio="xMidYMid meet" version="1.0">
 <g class="layer">
  <title>Layer 1</title>
  <g fill="#000000" id="svg_1" transform="matrix(0.1 0 0 -0.1 0 0)">
   <path d="m250,-106c-83,-26 -151,-93 -174,-172c-12,-38 -16,-97 -16,-210c0,-186 15,-241 81,-307c65,-66 97,-72 378,-72c216,0 251,3 286,19c61,28 105,70 131,126c22,47 24,62 24,241c0,185 -1,192 -26,242c-14,29 -42,65 -62,82c-66,54 -101,60 -361,59c-130,0 -247,-4 -261,-8z" fill="#0000ff" id="svg_2"/>
   <path d="m1330,-480l0,-260l39,0c35,0 40,3 46,29l6,28l33,-33c29,-29 41,-34 84,-34c96,0 154,69 155,183c1,120 -44,186 -130,194c-40,4 -55,0 -85,-21l-38,-25l0,99l0,100l-55,0l-55,0l0,-260zm238,16c22,-21 33,-91 23,-138c-16,-71 -73,-99 -122,-59c-18,14 -23,31 -27,80c-5,70 10,118 42,131c25,11 66,4 84,-14z" id="svg_3"/>
   <path d="m2580,-480l0,-260l50,0l50,0l0,53c0,44 4,58 26,77c21,21 27,22 35,10c5,-8 26,-43 47,-77l37,-63l52,0l52,0l-68,108l-68,108l65,72l65,72l-55,0l-54,0l-59,-69c-33,-39 -63,-70 -67,-70c-5,-1 -8,67 -8,149l0,150l-50,0l-50,0l0,-260z" id="svg_4"/>
   <path d="m3140,-480l0,-260l40,0c35,0 40,3 40,23c0,37 8,37 44,1c28,-28 41,-34 78,-34c100,0 158,69 158,190c0,81 -26,142 -72,170c-51,31 -122,24 -161,-15c-16,-15 -17,-9 -17,84l0,101l-55,0l-55,0l0,-260zm213,29c33,-15 47,-49 47,-110c0,-105 -66,-154 -125,-94c-22,21 -25,33 -25,90c0,74 11,102 43,115c30,12 32,12 60,-1z" id="svg_5"/>
   <path d="m4930,-321l0,-100l-26,20c-35,28 -88,36 -135,22c-108,-33 -136,-242 -44,-331c59,-57 172,-50 207,13c12,22 12,22 18,-8c4,-26 10,-30 43,-33l37,-3l0,260l0,261l-50,0l-50,0l0,-101zm-25,-150c16,-16 20,-33 20,-90c0,-65 -2,-73 -28,-95c-35,-30 -59,-30 -93,-1c-23,20 -28,34 -31,83c-4,67 9,102 47,121c29,15 57,9 85,-18z" id="svg_6"/>
   <path d="m1840,-393c-65,-34 -93,-91 -88,-183c3,-60 8,-77 32,-108c75,-99 235,-86 294,24c20,38 23,55 19,112c-5,83 -32,129 -91,157c-56,27 -112,27 -166,-2zm135,-77c22,-24 31,-113 16,-152c-5,-15 -22,-34 -36,-44c-21,-14 -30,-14 -54,-5c-36,15 -51,48 -51,112c0,50 13,87 34,101c22,15 73,8 91,-12z" id="svg_7"/>
   <path d="m2275,-377c-30,-8 -83,-51 -99,-81c-38,-74 -28,-177 25,-237c37,-42 86,-59 151,-53c115,12 181,125 144,251c-29,98 -116,145 -221,120zm109,-95c39,-60 25,-171 -26,-195c-81,-40 -143,101 -84,192c23,34 88,36 110,3z" id="svg_8"/>
   <path d="m3744,-380c-12,-4 -33,-23 -48,-42l-26,-33l0,38l0,37l-50,0l-50,0l0,-180l0,-180l55,0l55,0l0,115c0,137 10,155 85,155l45,0l0,50c0,45 -2,50 -22,49c-13,0 -33,-4 -44,-9z" id="svg_9"/>
   <path d="m3943,-381c-36,-10 -83,-61 -83,-90c0,-31 66,-26 96,7c34,35 92,31 114,-9c13,-24 13,-29 0,-37c-8,-5 -38,-10 -67,-10c-90,0 -147,-35 -159,-97c-22,-116 142,-184 217,-90c16,19 16,19 23,-7c6,-23 12,-26 46,-26l40,0l0,149c0,134 -2,151 -20,174c-33,42 -128,59 -207,36zm137,-218c0,-45 -35,-81 -79,-81c-44,0 -61,14 -61,51c0,38 33,59 92,59c46,0 48,-1 48,-29z" id="svg_10"/>
   <path d="m4436,-380c-15,-5 -37,-17 -47,-26c-18,-16 -19,-16 -19,4c0,20 -5,22 -50,22l-50,0l0,-180l0,-180l50,0l50,0l0,123c0,67 4,127 8,134c15,23 62,34 90,20c27,-12 27,-12 30,-145l3,-132l49,0l50,0l0,140c0,152 -8,186 -52,207c-34,18 -79,23 -112,13z" id="svg_11"/>
  </g>
 </g>
</svg>